<?xml version="1.0" encoding="utf-8"?>
<!DOCTYPE svg PUBLIC "-//W3C//DTD SVG 1.1//EN" "http://www.w3.org/Graphics/SVG/1.1/DTD/svg11.dtd">
<svg version="1.1" xmlns="http://www.w3.org/2000/svg" xmlns:xlink="http://www.w3.org/1999/xlink" width="110" height="128" viewBox="0 0 110 128">
<path fill="#f7ecf3" d="M104.857 34c0.714 0.714 1.357 1.571 2 2.571h-33.714v-33.714c1 0.643 1.857 1.286 2.571 2zM70.857 45.714h38.857v75.429c0 3.786-3.071 6.857-6.857 6.857h-96c-3.786 0-6.857-3.071-6.857-6.857v-114.286c0-3.786 3.071-6.857 6.857-6.857h57.143v38.857c0 3.786 3.071 6.857 6.857 6.857zM82.286 98.286v-4.571c0-1.286-1-2.286-2.286-2.286h-50.286c-1.286 0-2.286 1-2.286 2.286v4.571c0 1.286 1 2.286 2.286 2.286h50.286c1.286 0 2.286-1 2.286-2.286zM82.286 80v-4.571c0-1.286-1-2.286-2.286-2.286h-50.286c-1.286 0-2.286 1-2.286 2.286v4.571c0 1.286 1 2.286 2.286 2.286h50.286c1.286 0 2.286-1 2.286-2.286zM82.286 61.714v-4.571c0-1.286-1-2.286-2.286-2.286h-50.286c-1.286 0-2.286 1-2.286 2.286v4.571c0 1.286 1 2.286 2.286 2.286h50.286c1.286 0 2.286-1 2.286-2.286z"></path>
</svg>
