<?xml version="1.0" encoding="utf-8"?>
<!DOCTYPE svg PUBLIC "-//W3C//DTD SVG 1.1//EN" "http://www.w3.org/Graphics/SVG/1.1/DTD/svg11.dtd">
<svg version="1.1" xmlns="http://www.w3.org/2000/svg" xmlns:xlink="http://www.w3.org/1999/xlink" width="128" height="128" viewBox="0 0 128 128">
<path fill="#f7ecf3" d="M77.714 59.429c0-2.5-2.071-4.571-4.571-4.571h-18.286c-2.5 0-4.571 2.071-4.571 4.571s2.071 4.571 4.571 4.571h18.286c2.5 0 4.571-2.071 4.571-4.571zM118.857 45.714v68.571c0 2.5-2.071 4.571-4.571 4.571h-100.571c-2.5 0-4.571-2.071-4.571-4.571v-68.571c0-2.5 2.071-4.571 4.571-4.571h100.571c2.5 0 4.571 2.071 4.571 4.571zM123.429 13.714v18.286c0 2.5-2.071 4.571-4.571 4.571h-109.714c-2.5 0-4.571-2.071-4.571-4.571v-18.286c0-2.5 2.071-4.571 4.571-4.571h109.714c2.5 0 4.571 2.071 4.571 4.571z"></path>
</svg>
