<?xml version="1.0" encoding="utf-8"?>
<!-- Generated by IcoMoon.io -->
<!DOCTYPE svg PUBLIC "-//W3C//DTD SVG 1.1//EN" "http://www.w3.org/Graphics/SVG/1.1/DTD/svg11.dtd">
<svg version="1.1" xmlns="http://www.w3.org/2000/svg" xmlns:xlink="http://www.w3.org/1999/xlink" width="119" height="128" viewBox="0 0 119 128">
<path fill="#020718" d="M9.143 118.857h20.571v-20.571h-20.571v20.571zM34.286 118.857h22.857v-20.571h-22.857v20.571zM9.143 93.714h20.571v-22.857h-20.571v22.857zM34.286 93.714h22.857v-22.857h-22.857v22.857zM9.143 66.286h20.571v-20.571h-20.571v20.571zM61.714 118.857h22.857v-20.571h-22.857v20.571zM34.286 66.286h22.857v-20.571h-22.857v20.571zM89.143 118.857h20.571v-20.571h-20.571v20.571zM61.714 93.714h22.857v-22.857h-22.857v22.857zM36.571 32v-20.571c0-1.214-1.071-2.286-2.286-2.286h-4.571c-1.214 0-2.286 1.071-2.286 2.286v20.571c0 1.214 1.071 2.286 2.286 2.286h4.571c1.214 0 2.286-1.071 2.286-2.286zM89.143 93.714h20.571v-22.857h-20.571v22.857zM61.714 66.286h22.857v-20.571h-22.857v20.571zM89.143 66.286h20.571v-20.571h-20.571v20.571zM91.429 32v-20.571c0-1.214-1.071-2.286-2.286-2.286h-4.571c-1.214 0-2.286 1.071-2.286 2.286v20.571c0 1.214 1.071 2.286 2.286 2.286h4.571c1.214 0 2.286-1.071 2.286-2.286zM118.857 27.429v91.429c0 5-4.143 9.143-9.143 9.143h-100.571c-5 0-9.143-4.143-9.143-9.143v-91.429c0-5 4.143-9.143 9.143-9.143h9.143v-6.857c0-6.286 5.143-11.429 11.429-11.429h4.571c6.286 0 11.429 5.143 11.429 11.429v6.857h27.429v-6.857c0-6.286 5.143-11.429 11.429-11.429h4.571c6.286 0 11.429 5.143 11.429 11.429v6.857h9.143c5 0 9.143 4.143 9.143 9.143z"></path>
</svg>
